<svg xmlns="http://www.w3.org/2000/svg" width="96" height="96" fill="none" viewBox="0 0 96 96" id="sql"><path fill="url(#paint0_linear_821_12451)" fill-rule="evenodd" d="M14 15.5C12.6193 15.5 11.5 16.6193 11.5 18V32C11.5 33.3807 12.6193 34.5 14 34.5H69C70.3807 34.5 71.5 33.3807 71.5 32V18C71.5 16.6193 70.3807 15.5 69 15.5H14ZM6.5 32C6.5 33.9209 7.22213 35.6731 8.40973 37C7.22213 38.3269 6.5 40.0791 6.5 42V55C6.5 56.9209 7.22213 58.6731 8.40973 60C7.22213 61.3269 6.5 63.0791 6.5 65V79C6.5 83.1421 9.85787 86.5 14 86.5H53H72.5H84C85.933 86.5 87.5 84.933 87.5 83V57.1236C87.5 54.5097 86.423 52.0113 84.5226 50.2167L83.9006 49.6293L83.859 49.5901L83.8158 49.5528L79.4617 45.8022C78.5809 45.0435 77.5759 44.4591 76.5 44.069V42C76.5 40.0791 75.7779 38.3269 74.5903 37C75.7779 35.6731 76.5 33.9209 76.5 32V18C76.5 13.8579 73.1421 10.5 69 10.5H14C9.85787 10.5 6.5 13.8579 6.5 18V32ZM71.5 43.5V42C71.5 40.6193 70.3807 39.5 69 39.5H14C12.6193 39.5 11.5 40.6193 11.5 42V55C11.5 56.3807 12.6193 57.5 14 57.5H49.5V47C49.5 45.067 51.067 43.5 53 43.5H71.5ZM49.5 62.5H14C12.6193 62.5 11.5 63.6193 11.5 65V79C11.5 80.3807 12.6193 81.5 14 81.5H49.5V70V62.5ZM54.5 81.5H72.5H82.5V59.5H77C73.9624 59.5 71.5 57.0376 71.5 54V48.5H54.5V70V81.5ZM76.5 49.8503V54C76.5 54.2761 76.7239 54.5 77 54.5H81.6561C81.4896 54.2681 81.3003 54.0509 81.0896 53.8519L80.5092 53.3038L76.5 49.8503ZM68 24.5C68 25.8807 66.8807 27 65.5 27C64.1193 27 63 25.8807 63 24.5C63 23.1193 64.1193 22 65.5 22C66.8807 22 68 23.1193 68 24.5ZM56.5 27C57.8807 27 59 25.8807 59 24.5C59 23.1193 57.8807 22 56.5 22C55.1193 22 54 23.1193 54 24.5C54 25.8807 55.1193 27 56.5 27ZM16.5 25C16.5 23.6193 17.6193 22.5 19 22.5H35C36.3807 22.5 37.5 23.6193 37.5 25C37.5 26.3807 36.3807 27.5 35 27.5H19C17.6193 27.5 16.5 26.3807 16.5 25ZM19 45.5C17.6193 45.5 16.5 46.6193 16.5 48C16.5 49.3807 17.6193 50.5 19 50.5H35C36.3807 50.5 37.5 49.3807 37.5 48C37.5 46.6193 36.3807 45.5 35 45.5H19ZM16.5 72C16.5 70.6193 17.6193 69.5 19 69.5H35C36.3807 69.5 37.5 70.6193 37.5 72C37.5 73.3807 36.3807 74.5 35 74.5H19C17.6193 74.5 16.5 73.3807 16.5 72ZM60.5476 70.2918C60.4628 70.2131 60.3909 70.1508 60.3321 70.1049C60.2473 70.0262 60.1787 69.9869 60.1264 69.9869C60.0807 69.9869 60.0252 70.0098 59.9599 70.0557L59.1077 70.8721C59.0359 70.9443 59 71.0066 59 71.059C59 71.1115 59.0359 71.177 59.1077 71.2557L59.1273 71.2754C59.1312 71.2754 59.135 71.2777 59.1389 71.2822C59.1416 71.2854 59.1442 71.2897 59.1469 71.2951L59.1665 71.3049C59.3232 71.482 59.5028 71.6459 59.7053 71.7967C59.9077 71.9475 60.1232 72.0787 60.3517 72.1902C60.5868 72.3016 60.8284 72.3902 61.0766 72.4557C61.3247 72.5213 61.5761 72.5541 61.8308 72.5541C62.2292 72.5541 62.6014 72.4984 62.9475 72.3869C63.2936 72.2689 63.594 72.1082 63.8486 71.9049C64.1033 71.6951 64.3025 71.4459 64.4461 71.1574C64.5963 70.8623 64.6714 70.5344 64.6714 70.1738C64.6714 69.8328 64.6127 69.5443 64.4951 69.3082C64.3776 69.0656 64.2111 68.859 63.9956 68.6885C63.7866 68.5115 63.5352 68.3607 63.2413 68.2361C62.9475 68.1115 62.6275 67.9902 62.2814 67.8721C61.9222 67.7541 61.6512 67.6459 61.4684 67.5475C61.2855 67.4492 61.1941 67.3082 61.1941 67.1246C61.1941 66.9344 61.2725 66.8033 61.4292 66.7311C61.5859 66.659 61.772 66.623 61.9875 66.623C62.1965 66.623 62.3924 66.6787 62.5753 66.7902C62.7646 66.8951 62.9246 67.0033 63.0552 67.1148L63.1042 67.1541C63.1499 67.1934 63.1891 67.2262 63.2217 67.2525C63.2609 67.2787 63.3034 67.2918 63.3491 67.2918C63.4078 67.2918 63.4634 67.2656 63.5156 67.2131L64.2698 66.4066C64.3547 66.3082 64.3972 66.2295 64.3972 66.1705C64.3972 66.0787 64.3155 65.9639 64.1523 65.8262C63.989 65.6885 63.7964 65.5541 63.5744 65.423C63.3132 65.2721 63.0422 65.1639 62.7614 65.0984C62.4871 65.0328 62.203 65 61.9092 65C61.5174 65 61.1615 65.0492 60.8415 65.1475C60.5215 65.2393 60.2473 65.3738 60.0187 65.5508C59.7967 65.7279 59.6236 65.941 59.4996 66.1902C59.3755 66.4393 59.3134 66.718 59.3134 67.0262C59.3134 67.6033 59.5061 68.0787 59.8914 68.4525C60.2832 68.8262 60.8742 69.1508 61.6643 69.4262C61.7557 69.459 61.8602 69.4984 61.9777 69.5443C62.1018 69.5836 62.2161 69.6361 62.3206 69.7016C62.4316 69.7607 62.5263 69.8295 62.6046 69.9082C62.683 69.9869 62.7222 70.0787 62.7222 70.1836C62.7222 70.3672 62.6601 70.5279 62.5361 70.6656C62.4185 70.8033 62.19 70.8721 61.8504 70.8721C61.6741 70.8721 61.501 70.8426 61.3313 70.7836C61.168 70.718 61.0048 70.6295 60.8415 70.518C60.7305 70.4393 60.6325 70.3639 60.5476 70.2918ZM65.8297 67.3508C65.6338 67.8033 65.5359 68.2918 65.5359 68.8164C65.5359 69.2557 65.6044 69.6754 65.7416 70.0754C65.8787 70.4689 66.0681 70.8262 66.3097 71.1475C66.5578 71.4689 66.8517 71.741 67.1913 71.9639C67.5308 72.1869 67.903 72.3475 68.3079 72.4459V73.7836C68.3079 73.9279 68.3797 74 68.5234 74H69.9731C70.1298 74 70.2082 73.9279 70.2082 73.7836V72.4557C70.6196 72.3574 70.9951 72.1967 71.3346 71.9738C71.6807 71.7508 71.9779 71.4787 72.226 71.1574C72.4741 70.8361 72.6668 70.4754 72.8039 70.0754C72.9476 69.6754 73.0194 69.2557 73.0194 68.8164C73.0194 68.2918 72.9215 67.8033 72.7255 67.3508C72.5296 66.8918 72.2619 66.4918 71.9223 66.1508C71.5828 65.8098 71.1844 65.541 70.7273 65.3443C70.2767 65.1475 69.7935 65.0492 69.2776 65.0492C68.7618 65.0492 68.2753 65.1475 67.8181 65.3443C67.361 65.541 66.9627 65.8098 66.6231 66.1508C66.2901 66.4918 66.0256 66.8918 65.8297 67.3508ZM67.5635 69.5738C67.472 69.3377 67.4263 69.082 67.4263 68.8066C67.4263 68.5377 67.472 68.2852 67.5635 68.0492C67.6549 67.8131 67.7822 67.6066 67.9455 67.4295C68.1087 67.2525 68.3046 67.1148 68.5332 67.0164C68.7618 66.9115 69.0099 66.859 69.2776 66.859C69.5454 66.859 69.7935 66.9115 70.0221 67.0164C70.2506 67.1148 70.4465 67.2525 70.6098 67.4295C70.773 67.6066 70.9004 67.8131 70.9918 68.0492C71.0832 68.2852 71.1289 68.5377 71.1289 68.8066C71.1289 69.082 71.0832 69.3377 70.9918 69.5738C70.9004 69.8098 70.773 70.0164 70.6098 70.1934C70.4465 70.3639 70.2506 70.5016 70.0221 70.6066C69.7935 70.7049 69.5454 70.7541 69.2776 70.7541C69.0099 70.7541 68.7618 70.7049 68.5332 70.6066C68.3046 70.5016 68.1087 70.3639 67.9455 70.1934C67.7822 70.0164 67.6549 69.8098 67.5635 69.5738ZM74.1905 65.3738C74.1905 65.3016 74.2101 65.2492 74.2493 65.2164C74.295 65.177 74.344 65.1574 74.3962 65.1574H75.8655C76.0027 65.1574 76.0712 65.2295 76.0712 65.3738V70.7148H78.7943C78.9314 70.7148 79 70.7869 79 70.9311V72.2393C79 72.3836 78.9314 72.4557 78.7943 72.4557H74.3962C74.2591 72.4557 74.1905 72.3836 74.1905 72.2393V65.3738Z" clip-rule="evenodd"></path><defs><linearGradient id="paint0_linear_821_12451" x1="47" x2="47" y1="10.5" y2="86.5" gradientUnits="userSpaceOnUse"><stop stop-color="#09A4FB"></stop><stop offset="1" stop-color="#3840F3"></stop></linearGradient></defs></svg>