<svg xmlns="http://www.w3.org/2000/svg" data-name="Layer 1" viewBox="0 0 700 550" id="man-working-on-laptop-while-seating-on-sofa"><path fill="#d5efc8" d="M563.55763,368.32762c-24.92481,96.76551-100.53958,93.88828-224.56118,93.88828S114.4355,468.25157,114.4355,368.32766,221.9297,228.3474,338.99659,187.3994C515.41212,125.69237,600.50392,224.89049,563.55763,368.32762Z"></path><path fill="#d5efc8" d="M492.26758,464.41713l-.27344-.96094c45.14746-12.86817,71.01172-40.85742,83.86231-90.75488,19.74023-76.62793,7.2832-142.42872-34.17676-180.53223-44.87012-41.23535-119.05078-46.63965-208.88379-15.2207l-.33008-.94336c90.19629-31.54883,164.73633-26.06934,209.89063,15.42871,41.74023,38.35937,54.30371,104.52051,34.46875,181.51758C563.875,423.23158,537.79688,451.44154,492.26758,464.41713Z"></path><rect width="94.32" height="127.8" x="119" y="316.037" fill="#e19974"></rect><rect width="112.32" height="3.6" x="110" y="305.237" fill="#935b50"></rect><rect width="69.48" height="18.72" x="131.42" y="321.437" fill="#d6694b" rx="3"></rect><polygon fill="#d6694b" points="213.32 316.037 119 316.037 110 308.837 222.32 308.837 213.32 316.037"></polygon><rect width="69.48" height="82.44" x="131.42" y="349.877" fill="#d6694b" rx="3"></rect><rect width="50.04" height="59.76" x="141.14" y="361.217" fill="#935b50" rx="3"></rect><rect width="104.04" height="5.24" x="114.14" y="443.837" fill="#935b50" rx="2"></rect><polygon fill="#e19974" points="133 462.937 129.14 462.937 124.14 449.077 138 449.077 133 462.937"></polygon><polygon fill="#e19974" points="203.18 462.937 199.32 462.937 194.32 449.077 208.18 449.077 203.18 462.937"></polygon><circle cx="165.44" cy="330.797" r="3.24" fill="#935b50"></circle><circle cx="183.94" cy="391.097" r="3.24" fill="#e19974"></circle><path fill="#376f92" d="M237.61854,355.2787,244.6722,397.225a2,2,0,0,0,1.9254,1.66779l15.88075.37255a1.99809,1.99809,0,0,0,2.03858-2.18039c-.38721-4.23189-1.02226-13.28257.26352-16.498l-19.80377-27.99225a2,2,0,0,0-2.24055-.75029l-3.75312,1.19727A2,2,0,0,0,237.61854,355.2787Z"></path><path fill="#10394f" d="M240.49177 352.56035q1.16666 5.7799 2.24573 11.5759l2.18823 11.58646 2.0711 11.608q1.05452 5.8005 2.01288 11.61868-1.16775-5.77973-2.24609-11.57587L244.57575 375.787l-2.07074-11.608Q241.45042 358.37844 240.49177 352.56035zM252.14033 370.4778a16.38833 16.38833 0 012.94287-2.02362 13.29669 13.29669 0 011.6466-.7215 3.3453 3.3453 0 011.78089-.18924 4.45813 4.45813 0 00-1.68335.44559c-.53388.23941-1.06256.49347-1.57666.77948C254.20448 369.30937 253.19685 369.92308 252.14033 370.4778zM254.34412 374.31349a11.16887 11.16887 0 013.508-1.73989 8.91629 8.91629 0 013.89966-.31693 16.59245 16.59245 0 00-1.92731.21271 14.21024 14.21024 0 00-1.87146.44583A24.35664 24.35664 0 00254.34412 374.31349zM257.1656 378.05254a13.1228 13.1228 0 013.22985-2.09888 6.68624 6.68624 0 013.77143-.69461 7.45337 7.45337 0 00-1.86322.33643 12.43449 12.43449 0 00-1.76123.68261C259.38166 376.78258 258.2873 377.42821 257.1656 378.05254z"></path><path fill="#f9977a" d="M264.78045,380.58691l8.15561.38439L269.954,397.08383l-5.43757-.00587S262.81,386.1,264.78045,380.58691Z"></path><path fill="#8b9d36" d="M428.09825,295.76823l19.38136-1.48065v23.33151a3,3,0,0,1-2.71886,2.9868l-8.85643.83363a3,3,0,0,1-3.22461-2.40713Z"></path><path fill="#f9977a" d="M444.40827,324.22508s1.02708-14.802-1.052-15.65458-3.87158,5.88788-3.87158,5.88788l-4.366-1.79033-6.05611-13.69474a1.47023,1.47023,0,0,0-2.03131-.70539h0a1.46809,1.46809,0,0,0-.78275,1.24767c-.13172,3.70526.9968,22.751,9.61712,29.80954Z"></path><path fill="#ffba55" d="M445.54529,349.88785l-28.763,3.14515c-46.2896-62.46827-56.62728-50.33334-56.62728-50.33334-12.58068,3.59446-52.13059,66.06277-52.13059,66.06277l-37.05763,7.75821a2,2,0,0,0-1.59017,1.95756v18.39509a2,2,0,0,0,2,2H467.565C460.376,394.3802,445.54529,349.88785,445.54529,349.88785Zm-98.87307,11.23631,12.58416-20.67537L371.84063,357.979Z"></path><path fill="#e6952a" d="M308.0246 368.76308q4.811-1.05666 9.63935-2.02594l9.65075-1.9686 9.67377-1.85174q4.83326-.94473 9.6853-1.79367-4.81081 1.0578-9.63928 2.02627l-9.65082 1.96823-9.67388 1.85138Q312.87672 367.91393 308.0246 368.76308zM371.84071 357.97725q5.60631-.72093 11.22229-1.35333l11.22869-1.29526 11.24176-1.17688q5.61877-.60754 11.24817-1.118-5.60613.72213-11.22223 1.35373l-11.22876 1.29489-11.24176 1.17648Q377.4701 357.46658 371.84071 357.97725zM276.69471 375.32048q.098 2.94416.13654 5.88825l.04156 5.88827-.041 5.88825q-.036 2.94411-.13715 5.88824-.099-2.94411-.13715-5.88824l-.041-5.88825.04156-5.88827Q276.59389 378.26462 276.69471 375.32048z"></path><path fill="#e6952a" d="M330.59046,364.30239q7.07245-10.52175,14.2323-20.98349l14.29425-20.941.12781-.1872.14362.17517,13.895,16.946q6.96259,8.46057,13.84986,16.98318-7.03959-8.39708-14.02612-16.83792l-13.981-16.87506.27118-.012-14.37244,20.88739Q337.8459,353.90609,330.59046,364.30239Z"></path><polygon fill="#e6952a" points="276.695 387.097 322.793 387.532 368.891 388.025 414.988 388.637 461.083 389.309 414.985 388.874 368.887 388.381 322.79 387.768 276.695 387.097"></polygon><path fill="#e6952a" d="M441.49915,364.9431a19.65135,19.65135,0,0,0-7.83484,2.78269,20.11619,20.11619,0,0,0-6.01263,5.68979,23.32372,23.32372,0,0,0-1.98419,3.66308,26.58856,26.58856,0,0,0-1.38239,3.93976,15.17486,15.17486,0,0,0-.44787,2.04346l-.38745,2.06143-.37641,4.18549.20319-4.20664.33929-2.08163a15.35,15.35,0,0,1,.40357-2.07022,24.03194,24.03194,0,0,1,1.35058-4.00144,23.53519,23.53519,0,0,1,1.98792-3.73474,19.94956,19.94956,0,0,1,6.16662-5.7229A18.53252,18.53252,0,0,1,441.49915,364.9431Z"></path><path fill="#261417" d="M394.30891,358.53691a3.03044,3.03044,0,0,1-2.87989-2.09277l-14.60547-44.8667a3.0308,3.0308,0,1,1,5.76368-1.877L396.43,352.22393l40.56641-4.4502a3.03121,3.03121,0,0,1,.66015,6.02637l-43.01562,4.71875A3.041,3.041,0,0,1,394.30891,358.53691Z"></path><path fill="#1e1d22" d="M442.13705,253.783s-5.65305-5.51188,11.39387-10.47262,18.431,1.29185,25.25068,27.48573C478.7816,270.79607,458.73623,292.20364,442.13705,253.783Z"></path><path fill="#f9977a" d="M485.766,283.15058l-6.98442-12.35449s-14.547,6.45544-10.8603-4.6293c1.38207-4.15564-1.77427-10.66563-4.59725-5.2868,0,0-4.87062,4.55908-7.50747-.40365s-2.26407-7.61295-2.26407-7.61295-7.21425,2.49338-11.41539.91957l-1.28586,4.24792A7.07793,7.07793,0,0,0,441.61,263.811l.67819,1.094-3.36328,8.34628a1.47029,1.47029,0,0,0,.67114,1.84958c.4777.25447,1.14022.63257,2.05652,1.1941a5.642,5.642,0,0,1,2.46221,3.97148,5.7696,5.7696,0,0,1,1.2735,2.91265,7.36257,7.36257,0,0,0,.47178,2.55075c1.31137,3.2252,5.25037,9.07123,15.42168,2.36205l6.28307,9.43984Z"></path><path fill="#376f92" d="M433.30268,330.85528l11.7956-7.04215a2,2,0,0,1,2.95052,1.17576l3.33735,11.86613,17.30225-32.35747-1.12352-6.96585L485.766,283.15061l6.067,4.26939s38.19979,52.58088-24.2681,111.45349l-6.48152-7.63995-11.07624.25417a12.89482,12.89482,0,0,1-12.84954-9.99929c-1.88683-8.12256-3.88043-22.69783-4.8291-48.83517A2.01377,2.01377,0,0,1,433.30268,330.85528Z"></path><path fill="#10394f" d="M451.38618 336.855q4.03033 9.28382 7.9743 18.60409l-.21948.00034c3.80493-9.157 7.5744-18.32892 11.453-27.45514l5.78125-13.70465 2.90521-6.84625a13.65746 13.65746 0 011.69269-3.30707 5.6 5.6 0 013.08429-1.97021A5.56775 5.56775 0 00481.024 304.187a13.58416 13.58416 0 00-1.62341 3.31665l-2.83472 6.87573-5.69854 13.73926c-3.77466 9.16974-7.65833 18.29382-11.50659 27.43274l-.11.2612-.10968-.2609Q455.21858 346.22233 451.38618 336.855zM491.833 287.42q-2.83483 2.21357-5.70507 4.37927l-5.76148 4.30286-5.81042 4.23639q-2.91441 2.10581-5.86756 4.15906 2.83429-2.2143 5.70471-4.37976l5.76185-4.30231 5.81079-4.236Q488.88008 289.47352 491.833 287.42zM461.08338 391.23354c1.76209-1.30286 3.46753-2.68 5.1333-4.1015q2.5232-2.10252 4.92664-4.34311a113.51627 113.51627 0 009.09686-9.45725 83.87314 83.87314 0 007.747-10.57361 55.575 55.575 0 005.3064-11.97137 49.70919 49.70919 0 01-5.10248 12.09235 83.884 83.884 0 01-7.68042 10.68387 113.81714 113.81714 0 01-9.2074 9.4A101.79988 101.79988 0 01461.08338 391.23354z"></path><path fill="#1e1d22" d="M449.55109,262.57646a.85108.85108,0,0,1-.65918-.31054c-2.29882-2.78174-8.30761-1.87793-8.36914-1.86768a.85518.85518,0,0,1-.2666-1.68945c.28613-.04346,7.03321-1.06738,9.9541,2.46826a.8547.8547,0,0,1-.65918,1.39941Z"></path><path fill="#ffba55" d="M440.15417,272.75642a1.03837,1.03837,0,0,1-1.69971-.71215l-.66734-8.08778a1.03821,1.03821,0,1,1,2.06941-.17058l.66734,8.08778A1.03594,1.03594,0,0,1,440.15417,272.75642Z"></path><path fill="#1e1d22" d="M444.91633,267.65459a.85623.85623,0,0,1-.8086-.57666c-.00781-.022-.7666-2.21729-1.57128-4.02979a.85491.85491,0,0,1,1.5625-.69433c.83593,1.88135,1.59375,4.07422,1.626,4.1665a.85507.85507,0,0,1-.53027,1.08692A.83805.83805,0,0,1,444.91633,267.65459Z"></path><path fill="#ffba55" d="M462.4229,260.25511a.51884.51884,0,0,1-.17581.09627L439.2498,267.647a.51923.51923,0,1,1-.31429-.98975l22.99728-7.29563a.51932.51932,0,0,1,.49011.89348Z"></path><path fill="#1e1d22" d="M464.24151,270.66674c-1.41438,14.012-2.96221,17.42481-2.96221,17.42481s-5.22691,8.60775-12.40015,4.41307a10.86714,10.86714,0,0,1-4.94884-6.33062,1.28624,1.28624,0,0,1,1.128-1.6591c2.46431-.16648,4.70055-1.49771,4.25379-2.96293-.40441-1.31644-3.70378-1.22938-5.32347-1.10419a2.02128,2.02128,0,0,1-1.559-.556h0c-1.02958-.99061-1.9864-2.59551-.67911-3.172a15.26039,15.26039,0,0,1,10.18348-.28751,4.2086,4.2086,0,0,0,5.38308-3.325,22.14687,22.14687,0,0,0-2.0452-13.71228S466.23054,250.96186,464.24151,270.66674Z"></path><rect width=".357" height="7.018" x="429.744" y="284.702" fill="#ccccca"></rect><rect width=".357" height="7.018" x="436.844" y="282.391" fill="#ccccca"></rect><rect width=".357" height="7.018" x="441.06" y="285.737" fill="#ccccca"></rect><rect width=".357" height="7.96" x="433.338" y="276.742" fill="#ccccca"></rect><path fill="#c38f86" d="M227.13092,406.28875h0a7.41525,7.41525,0,0,1,7.41525-7.41525H472.15768a7.41525,7.41525,0,0,0,6.89017-4.67455l34.74443-87.34828a7.41525,7.41525,0,0,1,6.89017-4.67455h2.17566a7.41524,7.41524,0,0,1,7.20757,9.15785l-23.37892,96.6974a7.41525,7.41525,0,0,1-7.20758,5.67264h-264.933A7.41525,7.41525,0,0,1,227.13092,406.28875Z"></path><polygon fill="#935b50" points="227.131 464.937 240.711 413.704 256.792 413.704 232.302 464.937 227.131 464.937"></polygon><polygon fill="#935b50" points="488.687 413.704 503.395 464.937 496.041 464.937 472.059 413.704 488.687 413.704"></polygon><rect width="500" height="2" x="100" y="462.937" fill="#935b50"></rect><path fill="#8b9d36" d="M579.6455,437.27914c-.37387-.73686-37.37865-74.07278-35.08357-103.57322l-1.23652-.09524c-2.32214,29.84622,33.68,101.20736,35.214,104.23037Z"></path><path fill="#8b9d36" d="M543.98109 335.32235a14.51127 14.51127 0 001.56683-5.37628 19.36437 19.36437 0 00-.16874-5.087 19.02867 19.02867 0 00-1.483-4.86763l-.02286-.04821a2.52866 2.52866 0 00-4.78115.79728l-.006.053a19.03075 19.03075 0 00.17694 5.08564 19.36224 19.36224 0 001.49122 4.86629A14.51121 14.51121 0 00543.98109 335.32235zM546.51326 354.24213a9.88468 9.88468 0 005.25038-2.36559 13.00107 13.00107 0 003.38466-4.44829 11.86914 11.86914 0 001.09823-5.636l-.00358-.06448a2.50346 2.50346 0 00-4.69679-.96835q-.05074.09249-.10194.18458c-.72447 1.329-1.31338 2.58527-1.93207 3.89928a44.97736 44.97736 0 00-1.68981 4.18955A29.46374 29.46374 0 00546.51326 354.24213zM544.25651 342.346a9.88456 9.88456 0 005.25038-2.36558 13.00111 13.00111 0 003.38466-4.4483 11.86907 11.86907 0 001.09823-5.636l-.00358-.06449a2.50346 2.50346 0 00-4.69679-.96835q-.05074.09249-.10194.18458c-.72447 1.329-1.31338 2.58527-1.93207 3.89928a44.97736 44.97736 0 00-1.68981 4.18955A29.46461 29.46461 0 00544.25651 342.346zM544.60308 345.61105a15.34 15.34 0 00-1.79953-5.49047 20.85564 20.85564 0 00-3.08621-4.28984 20.485 20.485 0 00-4.06011-3.38109l-.09786-.06015a2.50566 2.50566 0 00-3.52132 3.285l.05347.1023a20.48365 20.48365 0 003.09252 4.284 20.88145 20.88145 0 004.06591 3.37558A15.35111 15.35111 0 00544.60308 345.61105zM551.21029 370.30854a15.37079 15.37079 0 004.25513-3.91765 20.91885 20.91885 0 002.629-4.59144 20.54875 20.54875 0 001.39876-5.10171q.01257-.09876.02442-.19784a2.48268 2.48268 0 00-4.4065-1.82731q-.06181.07846-.12288.15723a20.549 20.549 0 00-2.62117 4.59459 20.92012 20.92012 0 00-1.39147 5.10513A15.36139 15.36139 0 00551.21029 370.30854zM555.90058 384.56307a17.02786 17.02786 0 004.29961-4.36019 23.92172 23.92172 0 002.65932-4.99724 23.49262 23.49262 0 001.41733-5.47913q.0101-.08321.01973-.16659a2.48212 2.48212 0 00-4.4684-1.73478q-.04917.06806-.09787.1363a23.50873 23.50873 0 00-2.651 5 23.92729 23.92729 0 00-1.40954 5.48222A17.01752 17.01752 0 00555.90058 384.56307zM561.14671 397.57887a19.46681 19.46681 0 004.82493-4.49 28.29427 28.29427 0 003.23466-5.245 27.79522 27.79522 0 002.03262-5.81734l.02689-.12494a2.4815 2.4815 0 00-4.35193-2.06825l-.07982.09967a27.809 27.809 0 00-3.22777 5.249 28.29814 28.29814 0 00-2.02465 5.82076A19.467 19.467 0 00561.14671 397.57887zM566.42629 410.62794a19.63951 19.63951 0 005.00385-4.33912 28.59959 28.59959 0 003.443-5.15268 28.081 28.081 0 002.26233-5.76881l.00007-.00029a2.50444 2.50444 0 00-4.324-2.25515h0a28.11033 28.11033 0 00-3.436 5.15686 28.62762 28.62762 0 00-2.25483 5.77265A19.64616 19.64616 0 00566.42629 410.62794zM571.08685 421.48027a21.65447 21.65447 0 005.58449-4.19151 32.22491 32.22491 0 004.10405-5.14332 31.64607 31.64607 0 002.98407-5.86383l.0001-.00026a2.49681 2.49681 0 00-4.10194-2.63769h0a31.65024 31.65024 0 00-4.09741 5.14812 32.22794 32.22794 0 00-2.97689 5.86834A21.64043 21.64043 0 00571.08685 421.48027zM576.8912 433.24245a23.06774 23.06774 0 005.17373-5.04237 34.771 34.771 0 003.59281-5.81606 34.13925 34.13925 0 002.3962-6.40144l.00009-.00034a2.49232 2.49232 0 00-4.38029-2.14379h0a34.12 34.12 0 00-3.58534 5.81982 34.76257 34.76257 0 00-2.38877 6.40514A23.07011 23.07011 0 00576.8912 433.24245zM547.79415 360.2002a18.53548 18.53548 0 00-2.84952-5.75021 26.62539 26.62539 0 00-4.01333-4.42962 26.16276 26.16276 0 00-4.89349-3.43057l-.12576-.066a2.48171 2.48171 0 00-3.18008 3.60871l.08127.11636a26.16308 26.16308 0 004.01893 4.42333 26.62582 26.62582 0 004.89906 3.42429A18.53653 18.53653 0 00547.79415 360.2002zM551.96168 373.76622a15.86137 15.86137 0 00-2.98961-5.0697 21.78706 21.78706 0 00-4.00175-3.6291 21.39476 21.39476 0 00-4.76694-2.53945l-.05216-.019a2.51755 2.51755 0 00-2.7863 3.96734l.03561.04258a21.39238 21.39238 0 004.0064 3.62235 21.78938 21.78938 0 004.77156 2.53264A15.85024 15.85024 0 00551.96168 373.76622zM556.48409 386.62525a17.67447 17.67447 0 00-4.01167-4.79366 25.09624 25.09624 0 00-4.8161-3.22819 24.61891 24.61891 0 00-5.425-2.04342h0a2.51427 2.51427 0 00-2.2287 4.3377h0a24.61259 24.61259 0 004.81974 3.2208 25.08952 25.08952 0 005.42861 2.0361A17.66469 17.66469 0 00556.48409 386.62525zM562.13 400.4657a18.57909 18.57909 0 00-4.61847-4.47183 26.74774 26.74774 0 00-5.27349-2.83866 26.29485 26.29485 0 00-5.7696-1.60254l-.14016-.02022a2.4817 2.4817 0 00-1.79189 4.46424l.1152.08227a26.27482 26.27482 0 005.27687 2.83079 26.773 26.773 0 005.77294 1.59461A18.6017 18.6017 0 00562.13 400.4657zM566.86846 411.99535a22.23657 22.23657 0 00-5.8508-3.9908 33.26865 33.26865 0 00-6.28377-2.28469 32.70167 32.70167 0 00-6.61061-.9939l-.0004 0a2.49507 2.49507 0 00-1.19866 4.72748h0a32.67571 32.67571 0 006.28569 2.27665 33.27436 33.27436 0 006.613.98552A22.22645 22.22645 0 00566.86846 411.99535z"></path><path fill="#8b9d36" d="M571.57264 421.80749a19.29263 19.29263 0 00-5.68312-3.27216 27.9832 27.9832 0 00-5.93345-1.53018 27.48142 27.48142 0 00-6.1231-.21172h-.0001a2.50621 2.50621 0 00-.69416 4.82743h0a27.48581 27.48581 0 005.93509 1.5216 27.97941 27.97941 0 006.12421.20343A19.2849 19.2849 0 00571.57264 421.80749zM574.95658 429.72315a24.16594 24.16594 0 00-6.91861-2.64271 36.72584 36.72584 0 00-6.97276-.88331 36.07488 36.07488 0 00-7.01273.44757l-.00038.00006a2.4896 2.4896 0 00-.149 4.87485h0a36.09579 36.09579 0 006.97313.8749 36.72565 36.72565 0 007.013-.456A24.16531 24.16531 0 00574.95658 429.72315zM557.39187 435.77155a2.48621 2.48621 0 00.74455 4.80272h.00016a33.49781 33.49781 0 006.70035-.36076 32.88673 32.88673 0 006.49549-1.67662 22.12321 22.12321 0 006.22405-3.43266 22.12664 22.12664 0 00-6.97131-1.38661 32.89816 32.89816 0 00-6.69824.36863 33.49651 33.49651 0 00-6.495 1.68529z"></path><path fill="#5f7d37" d="M561.89478,422.97133c.15578-.9352,15.43654-93.9397,2.77684-125.44234l1.32076-.52959c12.80828,31.87183-2.05426,122.36981-2.69357,126.20654Z"></path><path fill="#5f7d37" d="M565.86344 299.09859a16.65021 16.65021 0 01-3.56441-5.34609 22.21891 22.21891 0 01-1.5651-5.62639 21.83393 21.83393 0 01-.051-5.83838l.00844-.06064a2.90138 2.90138 0 015.50783-.77187l.02475.05591a21.836 21.836 0 011.55566 5.62776 22.216 22.216 0 01.04155 5.83974A16.6503 16.6503 0 01565.86344 299.09859zM569.59959 320.67976a11.34159 11.34159 0 01-6.56092-.78343 14.91743 14.91743 0 01-5.23507-3.705 13.61863 13.61863 0 01-3.14081-5.7916l-.01827-.07182a2.87249 2.87249 0 014.80817-2.67557q.08735.08379.17508.167c1.25017 1.20558 2.32693 2.37815 3.45616 3.60369a51.61042 51.61042 0 013.29083 4.00475A33.80811 33.80811 0 01569.59959 320.67976zM567.9779 306.88158a11.34171 11.34171 0 01-6.56093-.78344 14.91749 14.91749 0 01-5.23506-3.705 13.61874 13.61874 0 01-3.14082-5.79161l-.01826-.07182a2.87248 2.87248 0 014.80816-2.67556q.08736.08379.17509.167c1.25017 1.20557 2.32693 2.37814 3.45615 3.60369a51.60394 51.60394 0 013.29083 4.00475A33.80715 33.80715 0 01567.9779 306.88158zM568.72165 310.57487a17.60146 17.60146 0 01.08123-6.629 23.9296 23.9296 0 011.90266-5.75737 23.50477 23.50477 0 013.28131-5.09764l.08643-.09949a2.875 2.875 0 014.98451 2.38462l-.02334.13037a23.50309 23.50309 0 01-1.91158 5.75314 23.95959 23.95959 0 01-3.28955 5.09359A17.61381 17.61381 0 01568.72165 310.57487zM569.98455 339.88222a17.63657 17.63657 0 01-6.00538-2.82471 24.0021 24.0021 0 01-4.45713-4.12163 23.57778 23.57778 0 01-3.286-5.10334q-.04773-.10379-.09479-.20816a2.84865 2.84865 0 014.19494-3.516q.09465.06462.18859.12984a23.57856 23.57856 0 014.44965 4.12776 24.00366 24.00366 0 013.27918 5.10961A17.62577 17.62577 0 01569.98455 339.88222zM569.75363 357.099a19.53766 19.53766 0 01-6.20629-3.29385 27.447 27.447 0 01-4.6299-4.55539 26.95489 26.95489 0 01-3.43615-5.51009q-.03967-.08761-.07889-.17557a2.848 2.848 0 014.29451-3.436q.07723.05759.154.11553a26.97364 26.97364 0 014.62175 4.56131 27.45464 27.45464 0 013.42868 5.51615A19.52621 19.52621 0 01569.75363 357.099zM568.48817 373.15105a22.33648 22.33648 0 01-6.82595-3.25519 32.46463 32.46463 0 01-5.34492-4.62872 31.89187 31.89187 0 01-4.226-5.66866l-.07242-.12751a2.84728 2.84728 0 014.05234-3.76093l.12165.08164a31.90888 31.90888 0 015.33875 4.63544 32.46952 32.46952 0 014.21844 5.67514A22.33651 22.33651 0 01568.48817 373.15105zM567.19755 389.251a22.53459 22.53459 0 01-6.96992-3.02854 32.81516 32.81516 0 01-5.54119-4.456 32.21966 32.21966 0 01-4.46076-5.53654l-.00017-.00028a2.8736 2.8736 0 013.95741-3.9559h0a32.25339 32.25339 0 015.535 4.463 32.84706 32.84706 0 014.45386 5.54331A22.54172 22.54172 0 01567.19755 389.251zM565.8289 402.73343a24.846 24.846 0 01-7.55473-2.66723 36.974 36.974 0 01-6.2616-4.21834 36.31052 36.31052 0 01-5.28346-5.39227l-.0002-.00026a2.86485 2.86485 0 013.5828-4.29827h0a36.31546 36.31546 0 016.256 4.22587 36.97841 36.97841 0 015.27716 5.39969A24.83 24.83 0 01565.8289 402.73343zM563.52119 417.60523a26.468 26.468 0 01-7.39778-3.7399 39.89617 39.89617 0 01-5.93338-5.1306 39.17077 39.17077 0 01-4.8249-6.183l-.00021-.00035a2.85969 2.85969 0 014.05738-3.85336h0a39.14978 39.14978 0 015.9265 5.13728 39.88693 39.88693 0 014.818 6.18958A26.471 26.471 0 01563.52119 417.60523zM570.24692 327.64225a21.26789 21.26789 0 011.14124-7.27452 30.55075 30.55075 0 012.86944-6.22929A30.019 30.019 0 01578.43412 308.7l.115-.11554a2.84752 2.84752 0 014.72232 2.85632l-.04893.15533a30.02009 30.02009 0 01-2.87772 6.22433 30.55123 30.55123 0 01-4.1848 5.43349A21.26855 21.26855 0 01570.24692 327.64225zM570.3514 343.92556a18.19951 18.19951 0 011.52868-6.57781 24.999 24.999 0 013.1321-5.349 24.54872 24.54872 0 014.34453-4.41947l.05055-.0388a2.88865 2.88865 0 014.41464 3.38435l-.02433.05886a24.54543 24.54543 0 01-3.13953 5.34324 25.00179 25.00179 0 01-4.35193 4.41362A18.18662 18.18662 0 01570.3514 343.92556zM569.82424 359.55706a20.27946 20.27946 0 012.74239-6.62721 28.79545 28.79545 0 014.16144-5.1903 28.24793 28.24793 0 015.23542-4.10285h0a2.88487 2.88487 0 013.93166 3.98155h0a28.24057 28.24057 0 01-4.168 5.18346 28.78711 28.78711 0 01-5.24195 4.09608A20.26832 20.26832 0 01569.82424 359.55706zM568.40487 376.64928a21.31784 21.31784 0 013.51732-6.48365 30.69083 30.69083 0 014.79609-4.92124 30.17122 30.17122 0 015.76434-3.73878l.14647-.07035a2.84752 2.84752 0 013.497 4.27033l-.0978.12967a30.14844 30.14844 0 01-4.80249 4.9138 30.71951 30.71951 0 01-5.77074 3.73125A21.34355 21.34355 0 01568.40487 376.64928zM567.1839 390.89992a25.5141 25.5141 0 015.03173-6.381 38.17249 38.17249 0 016.09252-4.66236 37.52251 37.52251 0 016.8943-3.36185l.00043-.00015a2.86286 2.86286 0 012.93823 4.76254h0a37.493 37.493 0 01-6.09739 4.65423 38.18 38.18 0 01-6.89984 3.3535A25.503 25.503 0 01567.1839 390.89992z"></path><path fill="#5f7d37" d="M565.4097 403.25871a22.13679 22.13679 0 015.09537-5.53667 32.10784 32.10784 0 015.96859-3.71593 31.53174 31.53174 0 016.62971-2.338l.00011 0a2.87563 2.87563 0 012.42037 5.04548h0a31.53686 31.53686 0 01-5.97334 3.70712 32.1028 32.1028 0 01-6.63377 2.32927A22.12773 22.12773 0 01565.4097 403.25871zM564.42833 413.08744a27.728 27.728 0 016.66429-5.27264 42.139 42.139 0 017.32877-3.36536 41.39269 41.39269 0 017.8303-1.92229l.00043-.00006A2.85657 2.85657 0 01588.092 407.812h0a41.41677 41.41677 0 01-7.33205 3.35628 42.14 42.14 0 01-7.83356 1.91313A27.72788 27.72788 0 01564.42833 413.08744zM585.7357 413.66636a2.85269 2.85269 0 01.837 5.51331l-.00017.00007a38.43682 38.43682 0 01-7.4585 1.90986 37.73539 37.73539 0 01-7.68688.399 25.38435 25.38435 0 01-7.9938-1.61657 25.38862 25.38862 0 017.15406-3.9158 37.74691 37.74691 0 017.4589-1.90051 38.43323 38.43323 0 017.68936-.38937z"></path><path fill="#c4ce6e" d="M560.68445,442.27466c.30689-.60483,30.68151-60.80114,28.79764-85.016l1.015-.07818c1.90608,24.49867-27.64556,83.074-28.9047,85.55539Z"></path><path fill="#c4ce6e" d="M589.95886 358.5855a11.91127 11.91127 0 01-1.2861-4.413 15.89472 15.89472 0 01.13851-4.17553 15.619 15.619 0 011.21731-3.9955l.01876-.03957a2.0756 2.0756 0 013.92451.65443l.0049.04347a15.62164 15.62164 0 01-.14523 4.17444 15.89322 15.89322 0 01-1.224 3.99441A11.91126 11.91126 0 01589.95886 358.5855zM587.88038 374.11541a8.11362 8.11362 0 01-4.30967-1.94174 10.67175 10.67175 0 01-2.77823-3.65129 9.74248 9.74248 0 01-.90146-4.62622l.00294-.05293a2.05492 2.05492 0 013.85527-.79485q.04164.07592.08368.15151c.59466 1.09089 1.07805 2.12206 1.58589 3.20064a36.91868 36.91868 0 011.387 3.43891A24.18481 24.18481 0 01587.88038 374.11541zM589.73279 364.35067a8.11351 8.11351 0 01-4.30967-1.94174 10.67163 10.67163 0 01-2.77823-3.65129 9.74248 9.74248 0 01-.90146-4.62622l.00294-.05293a2.05491 2.05491 0 013.85526-.79485q.04166.07593.08368.15151c.59467 1.09089 1.07806 2.12207 1.5859 3.20065a36.91846 36.91846 0 011.38705 3.4389A24.18526 24.18526 0 01589.73279 364.35067zM589.44831 367.03077a12.59157 12.59157 0 011.47711-4.50674 17.119 17.119 0 012.53326-3.52123 16.81447 16.81447 0 013.33265-2.7753l.08033-.04937a2.05672 2.05672 0 012.89041 2.69643l-.0439.084a16.81331 16.81331 0 01-2.53843 3.51643 17.14012 17.14012 0 01-3.33741 2.77077A12.60066 12.60066 0 01589.44831 367.03077zM584.02492 387.3032a12.61682 12.61682 0 01-3.49274-3.21572 17.17108 17.17108 0 01-2.158-3.76879 16.86735 16.86735 0 01-1.14814-4.18763q-.01032-.08107-.02-.1624a2.03786 2.03786 0 013.617-1.49991q.05073.06439.10086.12906a16.86729 16.86729 0 012.15154 3.77137 17.17167 17.17167 0 011.14215 4.19045A12.609 12.609 0 01584.02492 387.3032zM580.175 399.00375a13.977 13.977 0 01-3.52925-3.579 19.63529 19.63529 0 01-2.18284-4.10189 19.28312 19.28312 0 01-1.1634-4.49743l-.01619-.13674a2.0374 2.0374 0 013.6678-1.424l.08033.11188a19.29641 19.29641 0 012.176 4.10418 19.64072 19.64072 0 011.157 4.5A13.96875 13.96875 0 01580.175 399.00375zM575.86881 409.6875a15.97875 15.97875 0 01-3.96044-3.6855 23.22358 23.22358 0 01-2.65511-4.30527 22.81453 22.81453 0 01-1.66843-4.775l-.02208-.10255a2.03689 2.03689 0 013.5722-1.69769l.06552.08182a22.82662 22.82662 0 012.64944 4.30853 23.228 23.228 0 011.6619 4.77785A15.97922 15.97922 0 01575.86881 409.6875zM571.53517 420.39857a16.12089 16.12089 0 01-4.10731-3.56169 23.4754 23.4754 0 01-2.8261-4.22947 23.04948 23.04948 0 01-1.857-4.73521l-.00006-.00023a2.05572 2.05572 0 013.54923-1.8511h0a23.07341 23.07341 0 012.82036 4.2329 23.499 23.499 0 011.85083 4.73836A16.12584 16.12584 0 01571.53517 420.39857zM567.70964 429.30648a17.7745 17.7745 0 01-4.58391-3.44052 26.45091 26.45091 0 01-3.36873-4.22179 25.97517 25.97517 0 01-2.4494-4.8132l-.00009-.00022a2.04945 2.04945 0 013.367-2.16509h0a25.97982 25.97982 0 013.36328 4.22573 26.45375 26.45375 0 012.44352 4.81691A17.763 17.763 0 01567.70964 429.30648zM562.94526 438.96123a18.93482 18.93482 0 01-4.24675-4.13893 28.54022 28.54022 0 01-2.94908-4.774 28.02255 28.02255 0 01-1.96688-5.25449l-.00007-.00028a2.04577 2.04577 0 013.59547-1.75968h0a28.00781 28.00781 0 012.94295 4.77709 28.53426 28.53426 0 011.96077 5.25752A18.93666 18.93666 0 01562.94526 438.96123zM586.829 379.006a15.21481 15.21481 0 012.339-4.72 21.8555 21.8555 0 013.29426-3.636 21.4752 21.4752 0 014.01672-2.81592l.10323-.0542a2.03706 2.03706 0 012.6103 2.96213l-.06671.09552a21.476 21.476 0 01-3.29885 3.6308 21.85559 21.85559 0 01-4.0213 2.81075A15.21514 15.21514 0 01586.829 379.006zM583.40815 390.14137a13.01964 13.01964 0 012.454-4.16137 17.884 17.884 0 013.28475-2.97887 17.56151 17.56151 0 013.91285-2.08445l.04281-.01564a2.06648 2.06648 0 012.28708 3.25651l-.02923.03495a17.55969 17.55969 0 01-3.28857 2.97334 17.88546 17.88546 0 01-3.91664 2.07886A13.01031 13.01031 0 01583.40815 390.14137zM579.696 400.69645a14.50769 14.50769 0 013.2929-3.93479 20.60029 20.60029 0 013.95321-2.64979 20.20819 20.20819 0 014.45295-1.6773h0a2.06378 2.06378 0 011.82938 3.56051h0a20.20292 20.20292 0 01-3.95619 2.64372 20.5941 20.5941 0 01-4.456 1.67129A14.49975 14.49975 0 01579.696 400.69645zM575.06172 412.0571a15.25049 15.25049 0 013.791-3.67062 21.956 21.956 0 014.32864-2.33006 21.5837 21.5837 0 014.73585-1.3154l.115-.0166a2.03706 2.03706 0 011.47084 3.66438l-.09456.06753a21.568 21.568 0 01-4.33141 2.3236 21.97544 21.97544 0 01-4.7386 1.30889A15.26873 15.26873 0 01575.06172 412.0571zM571.17223 421.521a18.25248 18.25248 0 014.80251-3.27577 27.3082 27.3082 0 015.1579-1.87534 26.84269 26.84269 0 015.42619-.81583h.00033a2.048 2.048 0 01.98389 3.88046h0a26.82111 26.82111 0 01-5.15947 1.86875 27.31309 27.31309 0 01-5.42818.80894A18.24428 18.24428 0 01571.17223 421.521z"></path><path fill="#c4ce6e" d="M567.3109 429.57507a15.836 15.836 0 014.66487-2.68589 22.96966 22.96966 0 014.87035-1.256 22.55681 22.55681 0 015.026-.17378h.00008a2.05717 2.05717 0 01.56979 3.9625h0a22.56042 22.56042 0 01-4.87169 1.249 22.96589 22.96589 0 01-5.02694.167A15.82949 15.82949 0 01567.3109 429.57507zM564.53326 436.07248a19.83642 19.83642 0 015.679-2.16922 30.14539 30.14539 0 015.72346-.725 29.61157 29.61157 0 015.75625.36737l.00031.00006a2.04354 2.04354 0 01.12229 4.00142h0a29.62838 29.62838 0 01-5.72375.71814 30.14518 30.14518 0 01-5.75652-.37433A19.83581 19.83581 0 01564.53326 436.07248zM578.95089 441.03719a2.04076 2.04076 0 01-.61114 3.94222h-.00014a27.49624 27.49624 0 01-5.49984-.29612 26.9943 26.9943 0 01-5.33169-1.37622 18.15931 18.15931 0 01-5.10889-2.81763 18.16277 18.16277 0 015.72226-1.13818 27.00473 27.00473 0 015.49812.30259 27.49516 27.49516 0 015.33131 1.38334z"></path><path fill="#e19974" d="M580.31248,462.93666H554.591l-8.27487-43.90081a1.74489,1.74489,0,0,1,1.70271-2.07651h38.86582a1.7449,1.7449,0,0,1,1.70271,2.07651Z"></path><path fill="#d6694b" d="M587.98953,422.20791l.59792-3.172a1.74489,1.74489,0,0,0-1.70271-2.07652H548.0188a1.74489,1.74489,0,0,0-1.70271,2.07652l.59792,3.172Z"></path><polygon fill="#d6694b" points="556.647 450.504 551.214 445.019 556.647 439.535 562.081 445.019 556.647 450.504"></polygon><polygon fill="#d6694b" points="567.514 450.504 562.081 445.019 567.514 439.535 572.948 445.019 567.514 450.504"></polygon><polygon fill="#d6694b" points="578.256 450.504 572.822 445.019 578.256 439.535 583.689 445.019 578.256 450.504"></polygon><path fill="#ffba55" d="M569.13649 222.61438H495.49226a2 2 0 01-2-2V140.887a2 2 0 012-2h87.28846a2 2 0 012 2v66.67506zM582.78074 222.61439a2 2 0 002-2V207.56208l-15.64422 15.05231z"></path><path fill="#e6952a" d="M509.13634 148.26679a1.49975 1.49975 0 01-1.5-1.5v-14.3999a1.5 1.5 0 013 0v14.3999A1.49976 1.49976 0 01509.13634 148.26679zM499.13634 148.26679a1.49975 1.49975 0 01-1.5-1.5v-14.3999a1.5 1.5 0 013 0v14.3999A1.49976 1.49976 0 01499.13634 148.26679zM519.13634 148.26679a1.49975 1.49975 0 01-1.5-1.5v-14.3999a1.5 1.5 0 013 0v14.3999A1.49976 1.49976 0 01519.13634 148.26679zM529.13634 148.26679a1.49975 1.49975 0 01-1.5-1.5v-14.3999a1.5 1.5 0 013 0v14.3999A1.49976 1.49976 0 01529.13634 148.26679zM539.13634 148.26679a1.49975 1.49975 0 01-1.5-1.5v-14.3999a1.5 1.5 0 013 0v14.3999A1.49976 1.49976 0 01539.13634 148.26679zM549.13634 148.26679a1.49975 1.49975 0 01-1.5-1.5v-14.3999a1.5 1.5 0 013 0v14.3999A1.49976 1.49976 0 01549.13634 148.26679zM559.13634 148.26679a1.49975 1.49975 0 01-1.5-1.5v-14.3999a1.5 1.5 0 013 0v14.3999A1.49976 1.49976 0 01559.13634 148.26679zM569.13634 148.26679a1.49975 1.49975 0 01-1.5-1.5v-14.3999a1.5 1.5 0 013 0v14.3999A1.49976 1.49976 0 01569.13634 148.26679zM579.13634 148.26679a1.49975 1.49975 0 01-1.5-1.5v-14.3999a1.5 1.5 0 013 0v14.3999A1.49976 1.49976 0 01579.13634 148.26679z"></path><polygon fill="#e6952a" points="584.711 207.49 569.067 207.634 569.206 222.686 584.711 207.49"></polygon><circle cx="547.636" cy="163.767" r="6.48" fill="#e6952a"></circle><circle cx="565.616" cy="163.767" r="6.48" fill="#e6952a"></circle><circle cx="510.225" cy="179.767" r="6.48" fill="#e6952a"></circle><circle cx="529.136" cy="179.767" r="6.48" fill="#e6952a"></circle><circle cx="547.636" cy="179.767" r="6.48" fill="#e6952a"></circle><circle cx="565.616" cy="179.767" r="6.48" fill="#e6952a"></circle><circle cx="510.225" cy="195.767" r="6.48" fill="#e6952a"></circle><circle cx="529.136" cy="195.767" r="6.48" fill="#e6952a"></circle><circle cx="547.636" cy="195.767" r="6.48" fill="#e6952a"></circle><circle cx="565.616" cy="195.767" r="6.48" fill="#e6952a"></circle><circle cx="510.225" cy="210.767" r="6.48" fill="#e6952a"></circle><path fill="#af2f2f" d="M525.37049,189.42754a37.71193,37.71193,0,0,1,4.32031,6.0097c.61792,1.06226,1.22193,2.13282,1.76136,3.24176a26.78173,26.78173,0,0,1,1.45,3.42676,26.78769,26.78769,0,0,1-2.31586-2.91241c-.71582-1.00409-1.36713-2.04657-2.00445-3.09735A37.71814,37.71814,0,0,1,525.37049,189.42754Z"></path><path fill="#af2f2f" d="M532.90217,189.42754a37.71814,37.71814,0,0,1-3.21137,6.66846c-.63733,1.05078-1.28863,2.09326-2.00445,3.09735a26.78163,26.78163,0,0,1-2.31586,2.91241,26.78173,26.78173,0,0,1,1.45-3.42676c.53943-1.10894,1.14344-2.1795,1.76136-3.24176A37.7157,37.7157,0,0,1,532.90217,189.42754Z"></path><path fill="none" stroke="#fec165" stroke-linecap="round" stroke-linejoin="round" stroke-width=".874" d="M141.473,304.69108s-19.64084-122.52137,68.7429-111.76568v18.93937"></path><path fill="#fec165" d="M231.81815 231.62255H187.06777a22.53075 22.53075 0 0144.75038 0zM138.83922 303.3661h25.92157a.87353.87353 0 01.87353.87353v.997a0 0 0 010 0H137.96568a0 0 0 010 0v-.997A.87353.87353 0 01138.83922 303.3661z"></path><rect width="195.401" height="62.528" x="260.378" y="99.063" fill="#c0d6f2" rx="3.102"></rect><rect width="180.513" height="11.166" x="267.822" y="147.448" fill="#a2aee6" rx="1"></rect><path fill="#dae8f7" d="M267.98871,163.78334H443.81654a1,1,0,0,0,.95135-.6919l2.35229-7.26343a1,1,0,0,0-.95135-1.3081H270.341a1,1,0,0,0-.95135.6919l-2.3523,7.26343A1,1,0,0,0,267.98871,163.78334Z"></path><path fill="#a2aee6" d="M445.54364,127.29176H267.822a.5.5,0,0,1,0-1H445.54364a.5.5,0,0,1,0,1Z"></path><rect width="17.865" height="8.188" x="422.468" y="109.671" fill="#dae8f7" rx="1"></rect><path fill="#c0d6f2" d="M400.871 170.11857a70.41428 70.41428 0 003.05481 10.01276 76.36434 76.36434 0 004.34815 9.49451 61.89158 61.89158 0 0012.62512 16.44644 54.4883 54.4883 0 008.28516 6.25177 58.84464 58.84464 0 009.40527 4.41687c.81921.28537 1.65466.52554 2.48193.791l1.24439.38959 1.26782.304 2.54028.60016 2.5763.428c1.71106.3501 3.4563.43839 5.1914.63721.86756.11707 1.74292.08771 2.61524.13675l2.62207.1098a59.08583 59.08583 0 01-20.7887-2.66876 53.37224 53.37224 0 01-9.62183-4.3627 55.15228 55.15228 0 01-8.49414-6.29721A60.72811 60.72811 0 01407.597 189.98378 68.87687 68.87687 0 01400.871 170.11857zM299.129 170.11857a68.87687 68.87687 0 01-6.72595 19.86521 60.72811 60.72811 0 01-12.62732 16.825 55.15228 55.15228 0 01-8.49414 6.29721 53.37224 53.37224 0 01-9.62183 4.3627 59.08583 59.08583 0 01-20.7887 2.66876l2.62207-.1098c.87232-.049 1.74768-.01968 2.61524-.13675 1.7351-.19882 3.48034-.28711 5.1914-.63721l2.5763-.428 2.54028-.60016 1.26782-.304 1.24439-.38959c.82727-.26547 1.66272-.50564 2.48193-.791a58.84464 58.84464 0 009.40527-4.41687 54.4883 54.4883 0 008.28516-6.25177A61.89158 61.89158 0 00291.726 189.62584a76.36434 76.36434 0 004.34815-9.49451A70.41428 70.41428 0 00299.129 170.11857zM363.609 175.02333a71.51718 71.51718 0 016.46765 21.942 108.568 108.568 0 01.95764 11.45188 49.20437 49.20437 0 01-.25391 5.76526 38.4284 38.4284 0 01-1.08264 5.68506c-2.05542 7.51059-7.15307 13.9374-13.45373 18.36755a35.33393 35.33393 0 01-21.86463 6.55624 36.16774 36.16774 0 01-11.28747-2.55462 34.61348 34.61348 0 01-5.21021-2.56876 26.05932 26.05932 0 01-4.58191-3.59555 22.01717 22.01717 0 01-3.58545-4.60394c-.45813-.85974-.86645-1.75067-1.27319-2.63571l-.496-1.37537-.40064-1.403a26.0641 26.0641 0 01-.35046-11.55053 16.39452 16.39452 0 012.13794-5.425 10.80169 10.80169 0 014.325-3.91864 13.14014 13.14014 0 0111.3324.30258 11.90609 11.90609 0 014.309 3.85153 9.9608 9.9608 0 011.81811 5.44208 9.42388 9.42388 0 01-1.64379 5.45465 11.93213 11.93213 0 01-4.26368 3.7724 11.87278 11.87278 0 004.16175-3.84009 9.23869 9.23869 0 001.5011-5.37988 9.6541 9.6541 0 00-1.87427-5.23874 11.47773 11.47773 0 00-4.23047-3.626 12.61425 12.61425 0 00-10.83582-.16958 10.13308 10.13308 0 00-4.00793 3.725 15.66817 15.66817 0 00-1.97571 5.204 22.79074 22.79074 0 00-.38635 5.6091 27.242 27.242 0 00.82019 5.57 20.09581 20.09581 0 005.55676 9.58661 25.14064 25.14064 0 004.43091 3.44876 33.676 33.676 0 005.07129 2.47437 35.31848 35.31848 0 0010.991 2.447 34.38221 34.38221 0 0021.29284-6.30378 33.55274 33.55274 0 0013.23755-17.83361 37.70039 37.70039 0 001.12586-5.55448 48.51588 48.51588 0 00.31762-5.67956 110.60317 110.60317 0 00-.81177-11.40171A71.27207 71.27207 0 00363.609 175.02333z"></path></svg>